<?xml version="1.0" encoding="utf-8"?>
<!-- Generator: Adobe Illustrator 14.0.0, SVG Export Plug-In . SVG Version: 6.00 Build 43363)  -->
<!DOCTYPE svg PUBLIC "-//W3C//DTD SVG 1.1//EN" "http://www.w3.org/Graphics/SVG/1.1/DTD/svg11.dtd">
<svg version="1.1" xmlns="http://www.w3.org/2000/svg" xmlns:xlink="http://www.w3.org/1999/xlink" x="0px" y="0px" width="500px"
	 height="100px" viewBox="0 0 500 100"  xml:space="preserve">
<g id="Design_Elements">
	<g>
		<g>
			<polygon fill="#F16549" points="417.667,311.691 418.594,313.667 420.667,313.983 419.167,315.521 419.521,317.691 
				417.667,316.667 415.812,317.691 416.167,315.521 414.667,313.983 416.74,313.667 			"/>
			<polygon fill="#F16549" points="407.667,312.691 408.285,314.009 409.667,314.22 408.667,315.244 408.903,316.691 
				407.667,316.009 406.431,316.691 406.667,315.244 405.667,314.22 407.049,314.009 			"/>
			<polygon fill="#F16549" points="426.667,312.691 427.285,314.009 428.667,314.22 427.667,315.244 427.903,316.691 
				426.667,316.009 425.431,316.691 425.667,315.244 424.667,314.22 426.049,314.009 			"/>
		</g>
		<polygon fill="#F16549" points="354.667,315.021 400.667,313.521 400.667,316.521 		"/>
		<polygon fill="#F16549" points="433.667,313.521 479.667,315.021 433.667,316.521 		"/>
	</g>
</g>
</svg>
