<!-- Generated by IcoMoon.io -->
<svg version="1.1" xmlns="http://www.w3.org/2000/svg" width="3285" height="1024" viewBox="0 0 3285 1024">
<title></title>
<g id="icomoon-ignore">
</g>
<path fill="#050708" d="M1563.213 331.822h-80.906l1.468-59.392h74.897c0.357 8.095 18.847 19.475 46.959 19.475 12.703 0 21.91-1.304 27.638-3.912 5.738-2.599 6.849-4.521 6.849-10.124 0-7.477-14.317-6.318-42.95-12.597-30.102-6.646-67.014-14.51-90.972-29.029-19.678-11.94-30.556-23.233-30.556-43.501 0-19.9 12.897-35.763 38.719-47.587 25.793-11.815 60.851-17.727 105.153-17.727 30.45 0 62.734 6.801 81.070 8.366l0.966-6.231h76.906l0.696 61.952h-72.868c-0.696-10.288-30.556-25.011-56.571-25.011-11.37 0-16.548 0.889-23.89 3.072-6.743 2.009-8.675 3.004-8.675 7.535 0 8.279 10.201 7.448 38.699 13.592 44.457 9.825 71.757 10.201 105.907 30.817 9.767 5.893 16.944 14.693 22.702 22.306 5.738 7.612 8.607 16.162 8.607 25.639 0 20.577-12.539 36.729-37.608 48.485-25.069 11.747-59.556 17.63-103.414 17.63-23.417 0-68.067-7.11-88.827-10.607v6.849z"></path>
<path fill="#050708" d="M2089.511 834.639h-60.397l0.328-80.993h54.861c-0.483 15.862 19.166 46.824 62.609 46.824 13.051 0 44.071-8.617 36.584-27.648-8.24-20.915-40.216-18.983-57.257-22.306-13.708-2.666-80.49-20.528-94.024-54.301-3.458-8.598-5.342-19.311-5.342-28.682 0-44.245 35.888-69.874 72.52-76.443 28.914-5.188 82.847 4.164 106.873 8.057l13.215-7.023h53.615v71.564h-59.643c0.502 0-4.608-9.38-5.352-10.704-7.545-13.621-13.959-20.886-28.218-23.368-13.65-2.386-32.382-3.941-45.182 2.744-6.598 3.439-18.548 14.79-8.704 22.335 11.235 8.627 28.257 11.187 44.892 13.93 38.303 6.347 79.099 20.722 102.719 55.673 13.138 19.398 11.109 60.86-4.637 80.036-18.413 22.393-43.317 29.213-70.579 32.295-8.83 1.005-17.852 1.43-26.73 1.43-18.78 0-51.374-6.347-66.55-10.25l-15.602 6.83z"></path>
<path fill="#050708" d="M2431.333 74.219c0-28.421 27.832-37.878 61.208-37.878 41.308 0 61.643 12.781 61.643 37.878 0 29.619-23.61 41.752-61.643 41.752-38.844 0-61.208-12.694-61.208-41.752z"></path>
<path fill="#050708" d="M867.154 303.148c-13.534 11.805-38.284 18.075-56.929 24.257-18.664 6.173-39.26 9.255-61.807 9.255-37.936 0-64.744-5.429-80.423-16.287-15.688-10.849-23.523-29.783-23.523-56.803v-40.583c0-17.302-16.171-37.424-32.807-37.424h-6.859v-55.296h157.532l0.029 107.105c0 20.316 19.234 37.608 46.322 37.608 47.896 0 55.393-28.556 55.393-37.231v-14.761c0-20.152-23.9-33.608-35.444-33.608h-14.732v-59.112h169.771v110.293c0 20.055 17.572 33.608 32.855 33.608h9.892v57.692h-159.271v-28.711z"></path>
<path fill="#121212" d="M3264.019 273.446l-0.821 0.551h-6.27c-17.678 0-33.29-18.374-33.29-32.604v-40.892c0-27.010-10.211-43.568-23.929-56.803-12.259-11.853-43.25-20.953-81.852-20.953-22.972 0-43.935 3.091-62.937 9.264-18.963 6.183-35.338 15.176-53.209 26.981v-123.064h-166.574l-0.232 59.131h11.65c14.645 0 32.053 12.51 33.724 33.869v111.626c0 20.296-20.045 33.608-40.883 33.608h-4.492v57.692l211.746-0.029v-57.769h-7.989c-19.949 0-37.221-16.597-37.221-35.985l-0.097-14.858c0-19.243 28.981-34.391 49.712-34.391h13.64c20.731 0 39.327 15.602 39.327 34.855v15.099c0 21.968-19.62 35.28-41.462 35.28h-0.754v57.798h202.51v-58.407h-0.299z"></path>
<path fill="#050708" d="M2394.585 274.219l-0.077 57.634 211.292-0.029-0.338-57.769c-31.106 0-46.573-14.22-46.573-33.618l-0.039-110.186h-164.69v59.083l8.008-0.039c21.736 0 39.337 15.602 39.337 34.845v15.109c0 19.553-19.765 34.855-39.337 34.855l-7.583 0.116z"></path>
<path fill="#121212" d="M1465.904 273.446l-0.831 0.551h-6.144c-17.379 0-32.7-18.374-32.7-32.604v-40.892c0-27.010-10.047-43.568-23.513-56.803-12.066-11.853-42.496-20.953-80.432-20.953-22.547 0-43.143 3.091-61.807 9.264-18.654 6.183-34.748 15.176-52.292 26.981v-28.74h-163.656v4.743l-0.242-0.029v54.407h11.448c14.384 0 31.483 12.52 33.145 33.879v17.302c0 20.296-19.698 33.608-40.178 33.608h-4.415v57.692l208.365-0.029v-57.663h-7.226c-20.992 0-37.994-15.602-37.994-34.845v-15.109c0-23.282 31.435-34.855 51.364-34.855l8.289-0.261c20.992 0 42.467 15.602 42.467 34.855v15.37c0 10.965-11.718 34.845-38.014 34.845h-4.463v57.663h0.164v0.029h198.965v-58.407h-0.299z"></path>
<path fill="#121212" d="M3276.984 506.553l-0.589 0.425h-4.444c-12.501 0-23.542-14.326-23.542-25.436v-31.899c0-21.079-7.236-33.995-16.925-44.331-8.694-9.235-30.604-16.326-57.933-16.326-16.229 0-31.068 2.396-44.496 7.226-13.438 4.801-25.040 11.834-37.675 21.040v-22.422h-117.847v3.7l-0.174-0.029v42.448h8.25c10.356 0 22.673 9.776 23.871 26.45v13.486c0 15.843-14.181 26.238-28.942 26.238h-3.178v45.008l150.055-0.019v-44.988h-5.217c-15.109 0-27.358-12.182-27.358-27.194v-11.795c0-18.171 20.915-25.735 35.724-27.184l7.245-0.203c15.109 0 30.575 12.162 30.575 27.175v12.008c0 8.559-8.443 27.194-27.368 27.194h-3.207v44.988h0.097v0.019h143.283v-45.578h-0.203z"></path>
<path fill="#121212" d="M2378.414 273.446l-0.782 0.551h-5.893c-16.664 0-31.348-18.374-31.348-32.604v-40.892c0-27.010-9.612-43.568-22.528-56.803-11.544-11.853-27.696-20.953-64.048-20.953-21.61 0-37.077 3.091-54.948 9.264-17.881 6.183-29.020 15.176-45.848 26.981l-6.067 2.521c-3.7-6.762-8.289-12.558-13.428-17.814-11.544-11.853-27.696-20.953-64.039-20.953-21.61 0-41.346 3.091-59.237 9.264-17.862 6.183-33.28 15.176-50.099 26.981v-28.74h-152.334v4.743l-0.242-0.029v54.407h10.974c13.785 0 30.169 12.52 31.763 33.879v17.302c0 20.296-18.876 33.608-38.497 33.608h-4.241v57.692l187.498-0.029v-57.663h-4.878c-16.828 0-31.512-14.597-31.512-33.85v-15.109c0-23.282 23.581-35.85 39.559-35.85l9.303-0.261c16.828 0 34.034 15.602 34.034 34.855v15.37c0 10.965-9.39 34.845-30.459 34.845h-3.574v57.663h9.197v0.029h167.154v-57.692h-4.869c-16.828 0-30.459-15.602-30.459-34.845v-15.109c0-23.282 22.538-34.855 38.506-34.855l9.322-0.261c16.809 0 34.024 15.602 34.024 34.855v15.37c0 10.965-9.4 34.845-30.459 34.845h-3.584v57.692h182.32v-58.407h-0.28z"></path>
<path fill="#121212" d="M1930.433 790.186l-0.58 0.444h-4.241c-12.027 0-22.615-15.196-22.615-26.981v-36.767c0-22.354-6.946-36.043-16.268-47.007-8.327-9.796-29.377-17.331-55.624-17.331-15.592 0-29.831 2.55-42.747 7.661-12.897 5.101-24.025 12.549-36.168 22.325v-23.774h-110.051v3.932l-0.174-0.039v45.027h7.931c9.941 0 21.774 10.346 22.924 28.034v17.263c0 16.79-13.631 27.803-27.803 27.803h-3.053v44.795l140.984-0.019v-44.776h-4.994c-14.51 0-26.286-12.906-26.286-28.836v-15.447c0-19.263 15.582-28.836 29.377-28.836l11.892-0.213c14.51 0 29.358 12.897 29.358 28.836v15.659c0 9.081-8.105 28.836-26.286 28.836h-3.082v44.776h0.106v0.019h137.602v-45.384h-0.203z"></path>
<path fill="#121212" d="M1268.369 800.54v0.029h-2.145c0 0-30.594 1.468-30.594-49.316 0-62 29.3-51.567 32.739-51.567 24.277 0 21.726 37.56 21.726 37.56l-1.169 34.787c0 0-0.28 28.508-20.557 28.508zM1392.031 789.006c-12.887 0-19.205-11.94-19.205-28.228l-0.754-172.042h-115.896l-0.174 48.176h8.115c10.192 0 22.296 6.047 23.475 24.151l0.019 11.65c-6.366-15.379-36.391-20.132-52.466-20.625-19.301-0.589-45.723 8.704-61.807 21.726-21.842 17.64-30.14 49.79-30.14 78.664 0 29.947 11.824 57.363 32.517 74.047 28.942 23.349 92.083 19.649 115.857-4.85l-0.010 14.317c0 0 107.906 0 107.906-0.029h0.647v-46.959h-8.086z"></path>
<path fill="#121212" d="M2755.178 695.737h2.048l-0.029 0.029c17.34 0.599 26.508 10.472 26.508 35.656h-53.721c0-25.957 8.231-35.058 25.223-35.656l-0.029-0.029zM2756.811 837.958c33.541 0 64.048-3.285 83.33-18.847 9.998-8.047 17.369-24.334 22.19-35.512h-74.356c0 18.364-18.258 19.321-24.818 19.842-20.866 0-33.947-18.345-33.947-39.994l133.883-0.299c0-32.613-4.366-64.531-25.078-80.558-20.712-16.036-50.34-19.572-84.403-19.572s-57.286 3.536-77.988 19.572c-20.712 16.027-31.068 41.656-31.068 67.903 0 27.204 9.641 53.064 28.942 68.618 19.282 15.563 49.78 18.847 83.311 18.847z"></path>
<path fill="#121212" d="M1516.1 695.737h2.048l-0.029 0.029c17.34 0.599 26.508 10.472 26.508 35.656h-53.721c0-25.957 8.231-35.058 25.223-35.656l-0.029-0.029zM1517.732 837.958c33.541 0 64.048-3.285 83.33-18.847 10.008-8.047 17.369-24.334 22.19-35.512h-74.356c0 18.364-18.258 19.321-24.818 19.842-20.866 0-33.947-18.345-33.947-39.994l133.874-0.299c0-32.613-4.357-64.531-25.059-80.558-20.722-16.036-50.34-19.572-84.412-19.572-34.062 0-57.286 3.536-77.988 19.572-20.712 16.027-31.068 41.656-31.068 67.903 0 27.204 9.641 53.064 28.942 68.618 19.292 15.563 49.78 18.847 83.311 18.847z"></path>
<path fill="#121212" d="M2987.762 695.737h2.038l-0.019 0.029c17.34 0.599 23.909 5.545 26.508 35.656h-53.741c2.521-29.252 8.25-35.058 25.223-35.656l-0.010-0.029zM2995.751 803.441c-20.895 0-33.956-18.345-33.956-39.994l133.874-0.299c0-32.613-4.357-64.531-25.088-80.558-20.702-16.036-47.123-19.572-81.186-19.572s-60.503 3.536-81.205 19.572c-20.712 16.027-31.048 41.656-31.048 67.903 0 27.204 9.641 53.064 28.923 68.618 19.282 15.563 43.423 18.847 76.964 18.847h12.732c33.541 0 57.682-3.285 76.964-18.847 9.989-8.047 17.369-24.334 22.171-35.512h-74.346c0 18.364-18.268 19.321-24.798 19.842z"></path>
<path fill="#121212" d="M2812.918 274.143h-17.253v-0.193c-25.503 0-40.409-9.68-44.853-23.938v-61.778h78.983v-58.194h-78.983v-70.521h-68.115c-6.772 26.643-15.592 41.211-29.831 52.929-14.259 11.728-37.048 17.592-62.773 17.592h-8.144v58.194h42.709v69.497c0 16.374 1.507 27.918 4.579 34.652 3.043 6.724 8.057 12.752 15.032 18.075 10.337 7.989 19.186 14.027 35.743 18.075 16.577 4.067 38.854 6.105 61.015 6.105 22.808 0 40.574-0.502 54.881-2.879l0.097 0.019v-0.029c6.27-1.053 11.844-2.512 16.915-4.405v-53.2z"></path>
<path fill="#121212" d="M3263.604 790.77h-12.018v-0.155c-17.756 0-28.131-7.95-31.232-19.669v-55.866h51.181v-47.819h-51.181v-57.943h-47.432c-4.705 21.89-10.849 33.86-20.76 43.481-9.921 9.641-25.803 14.462-43.723 14.462h-5.651v47.819h29.725v57.093c0 13.457 1.053 22.943 3.198 28.469 2.106 5.535 5.613 10.482 10.462 14.858 7.207 6.559 13.37 11.525 24.895 14.848 11.534 3.342 27.039 5.014 42.467 5.014 15.891 0 28.247-0.406 38.216-2.357l0.068 0.010v-0.019c4.366-0.869 8.24-2.067 11.786-3.623v-38.603z"></path>
<path fill="#121212" d="M2444.607 788.804h-12.307v-0.155c-18.181 0-28.798-8.144-31.966-20.142v-51.973h44.814v-48.959h-44.814v-59.334h-48.572c-4.821 22.412-11.109 34.671-21.262 44.525-10.163 9.873-26.411 14.809-44.757 14.809h-5.806v48.959h30.44v58.465c0 13.776 1.082 23.494 3.275 29.155 2.164 5.661 5.748 10.723 10.713 15.205 7.381 6.724 13.689 11.805 25.494 15.205 11.815 3.42 27.687 5.139 43.491 5.139 16.258 0 28.923-0.425 39.134-2.425l0.058 0.019v-0.029c4.473-0.879 8.443-2.116 12.066-3.71v-44.757z"></path>
<path fill="#121212" d="M733.986 498.997c-6.869 8.134-33.985 26.286-105.685 19.775-12.52-1.13-19.35-7.661-19.9-17.157-0.126-2.261-3.922-2.164-3.999 0.174-0.174 4.54 0.319 9.071 3.555 13.235 1.41 1.806 1.323 2.705-2.222 3.014-7.381 0.628-14.79 1.401-21.997 2.637-11.863 2.038-23.639 4.366-35.357 6.801-8.405 1.749-16.654 3.893-25.069 5.874-2.879-4.763-7.632-7.989-15.544-9.757 44.708-14.249 89.020-26.325 136.549-31.763-2.744 2.966-5.497 5.951-8.366 9.042-1.082-0.367-2.773-1.169-4.608-1.478-2.715-0.435-2.347 0.57-3.033 1.092-0.27 0.193 0.531 1.352 1.208 1.816 1.198 0.86 5.159 0.261 6.357 2.309 0.705 1.227-1.169 3.98-2.106 4.598-1.217 0.84-4.453 1.778-6.163 1.855-0.522 0.029-5.603-1.14-4.057-2.879 1.42-1.594 5.738 0.27 7.893 0.348-0.203-2.241-2.087-4.647-6.028-3.932-4.202 0.754-6.357 3.449-5.304 5.825 1.217 2.734 5.275 4.212 9.612 3.381 7.1-1.381 11.776-4.395 11.022-10.018-0.541-4.115 2.415-6.811 6.994-9.226 4.115-2.174 10.539-1.951 12.761-6.009 0.106-0.203 0.937-0.222 1.449-0.29 9.226-1.043 18.413-2.309 27.706-3.072 14.52-1.208 29.097-2.029 43.665-3.072 2.29-0.155 2.937 0.029 1.971 1.787-0.647 1.159-0.937 2.859-0.174 3.893 3.188 4.328 1.826 7.699-1.13 11.196zM715.815 419.753c0.657-0.869 2.966-1.101 4.531-1.623 0.232 0.27 0.454 0.541 0.686 0.811-0.696 1.7-1.285 3.439-2.135 5.101-0.299 0.551-1.246 1.111-2.067 1.275-0.367 0.077-1.652-0.782-1.662-1.227-0.058-1.468-0.261-3.14 0.647-4.338zM2669.684 521.573c-2.135-0.135-4.27-0.213-6.405-0.29l-103.627-2.869 0.077-2.608 87.233 2.405c0.058-0.058 0.106-0.126 0.174-0.184 5.217-4.086 6.559-9.061 6.733-14.365 0.116-3.613 0.309-7.245 0.667-10.849 0.406-4.077-3.024-7.178-5.555-10.482-0.444-0.57-3.478-0.898-3.478-0.898l-60.754-1.256c0 0-10.994-0.348-15.331-3.458-0.86-0.609-2.705-0.705-4.115-0.744-4.492-0.135-8.994 0.019-13.476-0.193-7.506-0.367-14.578 0.464-21.63 2.164-3.594 0.869-7.641 1.246-11.477 1.14-40.641-1.082-1302.315-36.671-1305.416-37.077-2.454-0.319-4.753-1.294-7.158-1.903-1.439-0.367-2.956-0.831-4.453-0.86-8.057-0.174-16.133-0.126-24.19-0.338-4.878-0.126-7.777-2.328-8.733-5.767-0.232-0.869-1.497-1.613-2.29-2.415-1.227 0.638-2.859 1.082-3.584 1.932s-0.86 2.106-0.696 3.149c0.425 2.995-0.715 4.077-5.101 4.077-3.159 0-6.347-0.232-9.525-0.348-88.972-3.487-330.056-10.085-330.056-10.085s0.068-1.285-0.657-3.256c-1.092-2.937-3.178-5.816-5.545-8.414-2.463-2.715-2.715-3.613 0.782-5.526 2.946-1.604 5.999-2.859 10.076-1.884 0.84 0.193 2.309 0.010 2.946-0.406 5.816-3.758 13.621-6.134 17.331-11.351 3.236-4.521 4.589-9.863 11.805-12.539 0.792-0.29 1.42-1.179 1.565-1.855 0.251-1.159 0.068-2.367 0.068-3.565-1.758 0.348-3.797 0.425-5.226 1.111-1.546 0.744-2.686 1.99-3.739 3.14-9.313 10.076-22.885 16.712-37.183 22.808-3.652 1.565-7.313 3.13-10.955 4.705-2.405 1.034-1.169 2.164-0.048 3.256 3.024 2.975 5.593 6.018 5.68 9.825 0.048 2.193 0.174 3.719 0.174 3.719l-29.59-0.927c-1.43 0.058-21.581 0.792-14.703-5.613 1.024 0.57 5.864 1.121 10.482 1.768-4.444-3.903-10.414-6.656-15.843-9.815-2.946-1.739-5.922-3.468-8.675-5.072 1.507-3.256 2.454-6.289 4.338-8.994 0.908-1.333 3.371-2.55 5.468-2.908 2.608-0.435 4.936-1.043 5.149-2.782 0.193-1.662-0.328-3.826-1.787-5.062-2.724-2.338-6.569-3.739-11.225-3.458-3.941 0.232-5.989 2.048-5.149 4.782 1.381 4.492 0.937 5.159-4.743 7.603-1.092 0.464-1.971 1.15-2.946 1.739-0.377-0.135-0.734-0.27-1.111-0.396 0.773-1.005 1.246-2.241 2.386-2.956 2-1.266 2.309-2.415 1.034-4.125-1.893-2.512-2.241-5.072 0.106-7.593 0.628-0.705 0.705-1.681 1.024-2.521-1.623-0.087-3.893-0.686-4.724-0.164-1.855 1.159-4.193 2.879-4.183 4.386-0.010 7.081-4.028 12.771-10.134 18.055-4.811 4.164-9.148 8.617-13.64 12.964-2.521 2.434-2.715 5.217-1.159 7.883 1.092 1.913 0.609 2.27-2.106 2.686-16.944 2.531-34.072 4.695-50.688 7.999-22.789 4.54-45.269 9.825-67.719 15.080-21.417 4.994-42.651 10.395-64 15.534-2.154 0.512-4.608 0.657-6.917 0.647-18.915-0.106-37.878-0.782-56.716-0.28-22.335 0.609-44.757 1.42-66.811 3.603-28.083 2.782-56.040 6.434-83.698 10.752-54.146 8.462-91.812 17.91-145.698 27.078-15.698 2.676-30.942 6.617-46.322 10.143-5.748 1.304-11.38 2.009-17.485 1.101-2.019-0.299-4.357 0.193-6.424 0.589-3.574 0.705-7.052 1.642-10.568 2.463-3.42 0.792-6.801 1.662-10.269 2.328-2.241 0.425-4.676 0.377-6.936 0.802-8.907 1.662-17.765 3.42-26.634 5.159-9.216 1.797-18.384 3.71-27.638 5.41-7.294 1.323-9.738 4.299-7.574 9.525 1.227 2.975 2.715 5.535 6.608 7.554 2.444 1.266 3.082 0.734 5.149 2.434 4.26 3.536 28.769 36.41 39.926 60.368 6.386 13.737 13.254 40.738 14.346 55.75 2 27.793 57.035 2.917 78.423-5.081 25.445-9.486 50.495-19.485 75.641-29.339 41.008-16.065 65.507-32.836 106.67-48.698 31.203-12.027 62.348-24.19 94.43-34.98 17.418-5.874 33.135-13.554 50.311-19.543 5.902-2.058 11.747-4.164 17.881-6.347 1.671 1.855 3.458 4.144 7.332 2.27-0.58-1.275-1.101-2.415-1.613-3.545 2.637-0.396 5.371-1.352 7.873-1.082 13.032 1.439 18.876 11.989 10.868 19.214-3.681 3.323-8.868 4.106-14.606 2.666-1.478-0.377-4.057 0.039-5.207 0.782-2.541 1.652-5.188 3.545-3.912 6.492 0.696 1.613 2.135 2.251 4.666 2.434 13.090 0.937 23.861-4.763 26.373-14.568 0.908-3.526 3.516-5.603 7.893-6.82 18.606-5.178 37.656-9.602 57.373-12.172 8.762-1.14 18.181-0.57 27.252-0.087 91.078 4.859 112.853-10.259 124.474-20.161 4.386-3.739 6.559-7.864 7.303-12.53 0.299-1.893 0.126-3.642 4.27-3.304 2.666 0.213 3.526-1.42 3.072-3.091-0.705-2.734 0.937-3.265 4.54-3.178 34.546 0.85 69.11 1.594 103.656 2.338 2.241 0.048 4.482-0.184 6.714-0.27 6.984-0.251 13.969-0.879 20.934-0.686 107.762 3.091 166.091 4.888 273.852 8.105 25.001 0.744 50.002 1.7 75.003 2.628 2.975 0.116 5.912 0.937 8.897 1.111 8.366 0.483 16.732 0.831 25.107 1.121 1.864 0.077 3.739-0.309 5.603-0.512 0.609-0.068 1.217-0.338 1.816-0.328 12.694 0.444 25.387 0.908 38.081 1.401 1.053 0.019 2.106 0.184 3.12 0.367 3.545 0.628 6.221 0.068 8.704-1.971 1.063-0.889 5.613-1.13 5.613-1.13l483.154 14.5c0 0 7.1-0.792 9.776 1.787 0.454 0.435 1.98 0.386 3.033 0.444 17.968 0.898 35.956 1.806 53.953 2.589 1.256 0.058 3.41-0.657 3.681-1.333 0.821-2.029 2.869-2.125 5.13-2.174 1.053-0.019 2.125 0.048 3.178 0.077 178.601 4.946 486.371 13.457 486.371 13.457s6.134-0.309 8.086 2.077c0.357 0.415 1.913 0.473 2.937 0.502 3.362 0.116 6.743 0.145 10.105 0.222 2.773 0.068 5.555 0.135 8.318 0.27 5.188 0.261 10.375 0.599 15.553 0.84 3.671 0.184 7.352 0.319 11.022 0.396 2.492 0.058 4.994 0.058 7.477-0.039 1.275-0.048 2.879-0.077 3.71-0.589 2.608-1.623 5.564-1.681 8.81-1.594 14.172 0.309 28.344 0.502 42.496 0.754 0.522 0 1.179-0.155 1.575 0 8.965 3.497 18.693 1.691 28.044 2.328 6.163 0.415 12.394 0.029 18.596 0.242 2.705 0.087 7.129 2.859 8.115 1.101 0.116-0.222 100.458 2.154 109.974 2.579 4.202 0.184 5.68-0.676 6.907-5.632 0.715-2.85-1.681-5.217-5.516-5.477z"></path>
<path fill="#121212" d="M2873.402 485.709c-2.753 30.208-11.158 36.217-29.686 36.835-18.529-0.618-26.933-6.627-29.686-36.835-0.464-4.444 0.415-17.785 0.696-25.117 2.753-30.198 10.462-36.207 28.991-36.825 18.529 0.618 26.247 6.627 29 36.825 0.261 7.332 1.15 20.673 0.686 25.117zM2934.059 406.117c-22.596-15.688-53.538-19.137-90.711-19.137s-68.115 3.449-90.711 19.137c-22.605 15.669-28.575 40.728-28.575 66.386s5.97 50.717 28.575 66.386c22.596 15.688 53.538 19.137 90.711 19.137s68.115-3.449 90.711-19.137c22.596-15.669 28.575-40.728 28.575-66.386s-5.98-50.717-28.575-66.386z"></path>
<path fill="#000" d="M2582.142 670.121c-6.984 2.686-14.964 12.674-19.417 21.649v-24.325h-105.037v47.606c5.023 1.497 28.121 6.105 28.121 36.13 0 34.294-24.064 38.873-28.121 39.569v45.52h131.584v-45.52c-12.578-1.198-27.803-19.070-27.803-33.985 0-53.953 22.547-41.984 29.754-32.44 0 0 0.56 9.844 0.56 9.96h44.805c0 0-0.010-49.906-0.010-69.468-4.048-0.464-26.701-0.754-30.778-0.754-8.791 0-16.674 3.362-23.658 6.057z"></path>
<path fill="#121212" d="M830.010 803.775c-34.449 5.149-34.729-31.599-19.282-36.7 12.066-3.98 36.033-2.927 42.805-15.679 0 0 0.918 8.385 0.976 17.524 0.126 18.693-7.11 32.256-24.499 34.855zM924.942 757.28v-26.122c0-20.625-7.496-44.051-24.122-53.403-16.645-9.371-34.091-14.945-70.83-14.945-14.21 0-29.078 3.7-42.573 10.453-4.415-2.676-10.24-4.792-17.717-4.792h-38.4v53.615h52.379v-6.163c3.613-7.265 13.66-19.881 40.139-19.881 22.19 0 29.822 23.388 25.455 29.677-15.804 19.601-127.797-21.031-127.797 65.517 0 28.17 18.529 46.66 58.194 46.66 48.418 0 62.541-5.564 81.765-16.336 0 0 11.679 13.756 26.469 13.756h65.99v-43.742c-16.857 0-28.952-16.664-28.952-34.294z"></path>
<path fill="#121212" d="M432.138 186.724l-0.599 51.925c28.614 0 38.68 7.381 38.68 20.615 0 0 0.937 21.649-50.446 21.649-51.925 0-79.804-43.423-79.804-116.437 0-70.907 33.608-104.941 76.356-104.941 29.512 0 67.632 17.939 67.632 57.499h92.711v-107.559l-102.072-0.29-7.033 6.569c0 0-31.628-12.452-64.502-15.012-113.162-8.83-206.616 61.971-206.616 171.047 0 114.958 67.768 166.593 208.799 166.593 47.964 0 72.327-9.854 95.744-23.871 14.693 9.023 1.971 17.166 44.447 17.166l42.573-0.145v-144.809h-155.87z"></path>
<path fill="#121212" d="M604.044 719.837l-0.396 40.264c19.137 0 25.87 5.729 25.87 15.988 0 0 0.618 16.79-33.734 16.79-34.739 0-53.374-33.666-53.374-90.296 0-54.997 22.47-81.389 51.055-81.389 19.746 0 45.24 13.911 45.24 44.592h62v-83.417l-68.27-0.232-4.695 5.101c0 0-21.156-9.66-43.143-11.65-75.679-6.84-138.182 48.070-138.182 132.656 0 89.165 45.326 129.208 139.65 129.208 32.063 0 48.37-7.641 64.029-18.519 9.825 7.004 1.314 13.331 29.725 13.331l28.469-0.126v-112.302h-104.245z"></path>
<path fill="#000" d="M1085.44 670.121c-6.984 2.686-14.964 12.674-19.427 21.649v-24.325h-105.037v47.606c5.033 1.497 28.141 6.105 28.141 36.13 0 34.294-24.064 38.873-28.141 39.569v45.52h131.603v-45.52c-12.587-1.198-27.812-19.070-27.812-33.985 0-53.953 22.538-41.984 29.744-32.44 0 0 0.57 9.844 0.57 9.96h44.805c0 0-0.010-49.906-0.010-69.468-4.048-0.464-26.701-0.754-30.768-0.754-8.791 0-16.683 3.362-23.668 6.057z"></path>
</svg>
